<svg xmlns="http://www.w3.org/2000/svg" width="13.6" height="19.5" viewBox="0 0 13.6 19.5">
  <metadata><?xpacket begin="﻿" id="W5M0MpCehiHzreSzNTczkc9d"?>
<x:xmpmeta xmlns:x="adobe:ns:meta/" x:xmptk="Adobe XMP Core 5.6-c142 79.160924, 2017/07/13-01:06:39        ">
   <rdf:RDF xmlns:rdf="http://www.w3.org/1999/02/22-rdf-syntax-ns#">
      <rdf:Description rdf:about=""/>
   </rdf:RDF>
</x:xmpmeta>
                                                                                                    
                                                                                                    
                                                                                                    
                                                                                                    
                                                                                                    
                                                                                                    
                                                                                                    
                                                                                                    
                                                                                                    
                                                                                                    
                                                                                                    
                                                                                                    
                                                                                                    
                                                                                                    
                                                                                                    
                                                                                                    
                                                                                                    
                                                                                                    
                                                                                                    
                                                                                                    
                           
<?xpacket end="w"?></metadata>
<defs>
    <style>
      .cls-1 {
        fill: #d3d5e1;
        fill-rule: evenodd;
      }
    </style>
  </defs>
  <path id="icon" class="cls-1" d="M1237.33,772.123h-3.34v-1.318a0.628,0.628,0,0,0-.61-0.636h-4.47a0.622,0.622,0,0,0-.61.636v1.318h-3.34a0.628,0.628,0,0,0-.61.636v1.954a0.627,0.627,0,0,0,.61.635h12.37a0.627,0.627,0,0,0,.61-0.635v-1.954A0.628,0.628,0,0,0,1237.33,772.123Zm-4.56,0h-3.25V771.44h3.25v0.683Zm-7.57,4.5,0.5,12.423a0.632,0.632,0,0,0,.61.609h9.66a0.618,0.618,0,0,0,.61-0.609l0.51-12.423H1225.2Zm4.1,10.448a0.61,0.61,0,1,1-1.22,0V779.2a0.61,0.61,0,1,1,1.22,0v7.865Zm2.45,0a0.621,0.621,0,0,1-.61.635,0.627,0.627,0,0,1-.61-0.635V779.2a0.627,0.627,0,0,1,.61-0.635,0.621,0.621,0,0,1,.61.635v7.865Zm2.46,0a0.627,0.627,0,0,1-.61.635,0.621,0.621,0,0,1-.61-0.635V779.2a0.621,0.621,0,0,1,.61-0.635,0.627,0.627,0,0,1,.61.635v7.865h0Z" transform="translate(-1224.34 -770.156)"/>
</svg>
