<svg xmlns="http://www.w3.org/2000/svg" viewBox="0 0 492 417" width="492" height="417">
	<defs>
		<clipPath clipPathUnits="userSpaceOnUse" id="cp1">
			<path d="M0 0L492 0L492 417L0 417Z" />
		</clipPath>
	</defs>
	<style>
		tspan { white-space:pre }
		.shp0 { fill: #2c65b6 } 
	</style>
	<g id="Page 1" clip-path="url(#cp1)">
		<path id="Path 1" class="shp0" d="M122.63 0.33L0 78.46L122.63 156.58L245.26 78.46L122.63 0.33ZM367.9 0.33L245.27 78.46L367.9 156.58L490.53 78.46L367.9 0.33ZM0 234.71L122.63 312.83L245.26 234.71L122.63 156.58L0 234.71ZM367.89 156.58L245.26 234.71L367.89 312.84L490.52 234.71L367.89 156.58ZM122.63 338.88L245.26 417L367.89 338.88L245.26 260.76L122.63 338.88Z" />
	</g>
</svg>