<svg xmlns="http://www.w3.org/2000/svg" viewBox="0 0 45 35" width="45" height="35">
	<style>
		tspan { white-space:pre }
		.shp0 { fill: #c3d0d8 } 
	</style>
	<g id="CONTENT">
		<g id="CONTENT">
			<g id="ICONS">
				<g id="EMAIL">
					<g id="Normal">
						<g id="icon">
							<path id="icon" class="shp0" d="M40.1 33.38C41.04 33.38 41.86 33.08 42.55 32.49L30.67 21.03C30.39 21.23 30.11 21.42 29.85 21.6C28.96 22.24 28.24 22.73 27.68 23.08C27.13 23.44 26.39 23.8 25.47 24.16C24.55 24.53 23.69 24.72 22.9 24.72L22.87 24.72L22.85 24.72C22.05 24.72 21.2 24.53 20.28 24.16C19.35 23.8 18.62 23.44 18.06 23.08C17.51 22.73 16.79 22.24 15.9 21.6C15.65 21.43 15.38 21.24 15.08 21.03L3.19 32.49C3.89 33.08 4.71 33.38 5.65 33.38L40.1 33.38ZM4.27 13.82C3.38 13.25 2.59 12.6 1.9 11.86L1.9 29.28L12.38 19.19C10.28 17.78 7.58 15.99 4.27 13.82ZM41.5 13.82C38.31 15.9 35.61 17.69 33.37 19.19L43.84 29.29L43.84 11.86C43.17 12.58 42.39 13.24 41.5 13.82ZM40.1 1.62L5.65 1.62C4.45 1.62 3.52 2.01 2.88 2.79C2.23 3.57 1.9 4.55 1.9 5.72C1.9 6.67 2.33 7.7 3.19 8.8C4.05 9.91 4.96 10.78 5.93 11.41C6.46 11.77 8.06 12.84 10.73 14.62C12.17 15.58 13.42 16.42 14.5 17.15C15.41 17.76 16.21 18.3 16.86 18.74C16.93 18.79 17.05 18.87 17.21 18.98C17.38 19.1 17.59 19.24 17.85 19.43C18.36 19.78 18.78 20.07 19.12 20.29C19.45 20.5 19.86 20.75 20.34 21.02C20.81 21.29 21.26 21.49 21.68 21.63C22.1 21.76 22.49 21.83 22.85 21.83L22.87 21.83L22.9 21.83C23.26 21.83 23.65 21.76 24.07 21.63C24.49 21.49 24.94 21.29 25.41 21.02C25.89 20.75 26.29 20.5 26.63 20.29C26.97 20.07 27.39 19.78 27.89 19.43C28.16 19.24 28.37 19.1 28.54 18.98C28.7 18.87 28.81 18.79 28.89 18.74C29.4 18.4 30.19 17.87 31.26 17.15C33.2 15.85 36.06 13.94 39.84 11.41C40.98 10.64 41.93 9.72 42.7 8.63C43.46 7.55 43.84 6.42 43.84 5.23C43.84 4.24 43.47 3.39 42.73 2.68C41.99 1.97 41.11 1.62 40.1 1.62Z" />
						</g>
					</g>
				</g>
			</g>
		</g>
	</g>
</svg>