<svg xmlns="http://www.w3.org/2000/svg" width="20.937" height="17.937" viewBox="0 0 20.937 17.937">
  <metadata><?xpacket begin="﻿" id="W5M0MpCehiHzreSzNTczkc9d"?>
<x:xmpmeta xmlns:x="adobe:ns:meta/" x:xmptk="Adobe XMP Core 5.6-c142 79.160924, 2017/07/13-01:06:39        ">
   <rdf:RDF xmlns:rdf="http://www.w3.org/1999/02/22-rdf-syntax-ns#">
      <rdf:Description rdf:about=""/>
   </rdf:RDF>
</x:xmpmeta>
                                                                                                    
                                                                                                    
                                                                                                    
                                                                                                    
                                                                                                    
                                                                                                    
                                                                                                    
                                                                                                    
                                                                                                    
                                                                                                    
                                                                                                    
                                                                                                    
                                                                                                    
                                                                                                    
                                                                                                    
                                                                                                    
                                                                                                    
                                                                                                    
                                                                                                    
                                                                                                    
                           
<?xpacket end="w"?></metadata>
<defs>
    <style>
      .cls-1 {
        fill: #fff;
        fill-rule: evenodd;
      }
    </style>
  </defs>
  <path id="Forma_1_copy" data-name="Forma 1 copy" class="cls-1" d="M655.265,484.761a5.574,5.574,0,0,0-7.969,0,5.536,5.536,0,0,0-1.655,4.036v2.448h-8.46a1.16,1.16,0,0,0-.857.357,1.188,1.188,0,0,0-.352.867v7.344a1.188,1.188,0,0,0,.352.867,1.16,1.16,0,0,0,.857.357h12.085a1.161,1.161,0,0,0,.857-0.357,1.192,1.192,0,0,0,.352-0.867v-7.344a1.192,1.192,0,0,0-.352-0.867,1.161,1.161,0,0,0-.857-0.357h-1.208V488.8a3.162,3.162,0,0,1,.944-2.308,3.194,3.194,0,0,1,4.558,0,3.166,3.166,0,0,1,.944,2.308v3.264a0.784,0.784,0,0,0,.239.573,0.767,0.767,0,0,0,.566.243h0.806a0.771,0.771,0,0,0,.567-0.243,0.788,0.788,0,0,0,.239-0.573V488.8A5.537,5.537,0,0,0,655.265,484.761Z" transform="translate(-635.969 -483.094)"/>
</svg>
