<svg xmlns="http://www.w3.org/2000/svg" viewBox="0 0 35 32" width="35" height="32">
	<style>
		tspan { white-space:pre }
		.shp0 { fill: #c3d0d8 } 
	</style>
	<g id="CONTENT">
		<g id="CONTENT">
			<g id="ICONS">
				<g id="REMOTE CAHT">
					<g id="Normal">
						<g id="icon">
							<path id="icon" class="shp0" d="M31 25L20 25L20 28L23 28L23 30L12 30L12 28L15 28L15 25L4 25C2.34 25 1 23.66 1 22L1 5C1 3.34 2.34 2 4 2L31 2C32.66 2 34 3.34 34 5L34 22C34 23.66 32.66 25 31 25ZM31 5L4 5L4 22L31 22L31 5Z" />
						</g>
					</g>
				</g>
			</g>
		</g>
	</g>
</svg>