<svg xmlns="http://www.w3.org/2000/svg" viewBox="0 0 40 40" width="40" height="40">
	<style>
		tspan { white-space:pre }
		.shp0 { fill: #c3d0d8 } 
	</style>
	<g id="CONTENT">
		<g id="CONTENT">
			<g id="ICONS">
				<g id="VOICE CHAT">
					<g id="Normal">
						<g id="icon">
							<path id="icon " class="shp0" d="M19.92 1.62C9.8 1.62 1.57 9.49 1.57 19.17C1.57 22.55 2.57 25.83 4.48 28.67C4.12 32.92 3.15 36.07 1.75 37.57C1.56 37.76 1.51 38.07 1.63 38.32C1.74 38.54 1.95 38.68 2.18 38.68C2.21 38.68 2.24 38.67 2.26 38.67C2.51 38.63 8.27 37.75 12.43 35.2C14.8 36.21 17.31 36.73 19.92 36.73C30.04 36.73 38.28 28.85 38.28 19.17C38.28 9.49 30.04 1.62 19.92 1.62ZM11.36 21.77C10.01 21.77 8.91 20.61 8.91 19.17C8.91 17.74 10.01 16.57 11.36 16.57C12.71 16.57 13.8 17.74 13.8 19.17C13.8 20.61 12.71 21.77 11.36 21.77ZM19.92 21.77C18.57 21.77 17.48 20.61 17.48 19.17C17.48 17.74 18.57 16.57 19.92 16.57C21.27 16.57 22.37 17.74 22.37 19.17C22.37 20.61 21.27 21.77 19.92 21.77ZM28.49 21.77C27.14 21.77 26.04 20.61 26.04 19.17C26.04 17.74 27.14 16.57 28.49 16.57C29.84 16.57 30.94 17.74 30.94 19.17C30.94 20.61 29.84 21.77 28.49 21.77Z" />
						</g>
					</g>
				</g>
			</g>
		</g>
	</g>
</svg>