<svg xmlns="http://www.w3.org/2000/svg" viewBox="0 0 1092 1092" width="1092" height="1092">
	<defs>
		<clipPath clipPathUnits="userSpaceOnUse" id="cp1">
			<path d="M0 0L1092 0L1092 1092L0 1092Z" />
		</clipPath>
	</defs>
	<style>
		tspan { white-space:pre }
		.shp0 { fill: #e5e5e4 } 
		.shp1 { fill: #ffffff } 
		.shp2 { fill: #4a8cff } 
	</style>
	<g id="Page 1" clip-path="url(#cp1)">
		<path id="Path 1" class="shp0" d="M545.62 0.75C846.96 0.75 1091.25 245.04 1091.25 546.38C1091.25 847.71 846.96 1092 545.62 1092C244.29 1092 0 847.71 0 546.38C0 245.04 244.29 0.75 545.62 0.75Z" />
		<path id="Path 2" class="shp1" d="M545.62 11.37C841.1 11.37 1080.63 250.9 1080.63 546.38C1080.63 841.85 841.1 1081.38 545.62 1081.38C250.15 1081.38 10.62 841.85 10.62 546.38C10.62 250.9 250.15 11.37 545.62 11.37Z" />
		<path id="Path 3" class="shp2" d="M545.62 54.29C817.4 54.29 1037.71 274.6 1037.71 546.38C1037.71 818.15 817.4 1038.46 545.62 1038.46C273.85 1038.46 53.54 818.15 53.54 546.38C53.54 274.6 273.85 54.29 545.62 54.29Z" />
		<path id="Path 4" fill-rule="evenodd" class="shp1" d="M241.87 375.13L578.96 375.13C631.04 374.92 673.75 417 673.96 469.29L673.96 700.54C673.96 709.92 666.25 717.63 656.67 717.63L319.58 717.63C267.5 717.83 224.79 675.75 224.58 623.46L224.58 392.21C224.58 382.83 232.29 375.13 241.87 375.13ZM695.42 482.42L834.58 380.75C846.67 370.75 856.04 373.25 856.04 391.38L856.04 701.38C856.04 722 844.58 719.5 834.58 712L695.42 610.54L695.42 482.42Z" />
	</g>
</svg>