<svg xmlns="http://www.w3.org/2000/svg" viewBox="0 0 35 38" width="35" height="38">
	<style>
		tspan { white-space:pre }
		.shp0 { fill: #c3d0d8 } 
	</style>
	<g id="CONTENT">
		<g id="CONTENT">
			<g id="ICONS">
				<g id="FORUM">
					<g id="Normal">
						<g id="icon">
							<path id="icon" class="shp0" d="M5.34 4.78L7.54 4.41C7.52 4.62 7.5 4.85 7.5 5.07L7.5 28.53C7.5 29.93 8.07 31.21 8.98 32.14L8.98 32.14C9.9 33.07 11.15 33.65 12.54 33.65L23.95 33.65L10.48 35.94C8.31 36.31 6.24 34.81 5.87 32.6L2.05 9.47C1.69 7.26 3.17 5.15 5.34 4.78L5.34 4.78ZM12.54 1C10.33 1 8.53 2.83 8.53 5.07L8.53 28.53C8.53 30.77 10.33 32.6 12.54 32.6L29 32.6C31.2 32.6 33 30.77 33 28.53L33 7.72L26.07 7.62L26.07 1L12.54 1L12.54 1ZM27.47 6.14L27.47 1L27.61 1L33 5.91L33 6.14L27.47 6.14Z" />
						</g>
					</g>
				</g>
			</g>
		</g>
	</g>
</svg>