<svg xmlns="http://www.w3.org/2000/svg" viewBox="0 0 32 31" width="32" height="31">
	<style>
		tspan { white-space:pre }
		.shp0 { fill: #c3d0d8 } 
	</style>
	<g id="CONTENT">
		<g id="CONTENT">
			<g id="ICONS">
				<g id="PHONE">
					<g id="Normal">
						<g id="icon">
							<path id="icon" class="shp0" d="M29.37 23.36L25.05 19.18C24.18 18.35 22.76 18.38 21.87 19.24L19.69 21.35C19.55 21.27 19.41 21.2 19.26 21.12C17.88 20.38 16 19.37 14.02 17.45C12.03 15.53 10.99 13.71 10.22 12.38C10.14 12.24 10.07 12.1 9.99 11.97L11.45 10.56L12.17 9.86C13.06 9 13.09 7.62 12.23 6.79L7.91 2.61C7.05 1.78 5.62 1.81 4.73 2.67L3.51 3.85L3.54 3.89C3.13 4.39 2.79 4.97 2.54 5.6C2.31 6.19 2.16 6.76 2.09 7.33C1.52 11.91 3.68 16.09 9.55 21.77C17.66 29.61 24.2 29.02 24.48 28.99C25.1 28.92 25.69 28.78 26.29 28.55C26.93 28.31 27.53 27.98 28.05 27.58L28.08 27.61L29.31 26.44C30.2 25.58 30.23 24.2 29.37 23.36Z" />
						</g>
					</g>
				</g>
			</g>
		</g>
	</g>
</svg>