<svg xmlns="http://www.w3.org/2000/svg" width="16.18" height="16.375" viewBox="0 0 16.18 16.375">
  <metadata><?xpacket begin="﻿" id="W5M0MpCehiHzreSzNTczkc9d"?>
<x:xmpmeta xmlns:x="adobe:ns:meta/" x:xmptk="Adobe XMP Core 5.6-c142 79.160924, 2017/07/13-01:06:39        ">
   <rdf:RDF xmlns:rdf="http://www.w3.org/1999/02/22-rdf-syntax-ns#">
      <rdf:Description rdf:about=""/>
   </rdf:RDF>
</x:xmpmeta>
                                                                                                    
                                                                                                    
                                                                                                    
                                                                                                    
                                                                                                    
                                                                                                    
                                                                                                    
                                                                                                    
                                                                                                    
                                                                                                    
                                                                                                    
                                                                                                    
                                                                                                    
                                                                                                    
                                                                                                    
                                                                                                    
                                                                                                    
                                                                                                    
                                                                                                    
                                                                                                    
                           
<?xpacket end="w"?></metadata>
<defs>
    <style>
      .cls-1 {
        fill: #fff;
        fill-rule: evenodd;
      }
    </style>
  </defs>
  <path id="icon" class="cls-1" d="M1094.87,776.1a1.069,1.069,0,0,0-1.53,0l-0.39.389-5.38,5.451v0l-0.17.171s-0.54.552-1.76,4.54l-0.03.084a1.948,1.948,0,0,1-.07.217c-0.02.065-.04,0.132-0.06,0.2a1.114,1.114,0,0,1-.05.169c-0.04.131-.07,0.264-0.11,0.4a1.551,1.551,0,0,0-.06,1.226,1.575,1.575,0,0,0,1.21-.06l0.39-.119c0.06-.018.11-0.036,0.17-0.054s0.13-.038.19-0.057,0.15-.047.22-0.07a0.614,0.614,0,0,0,.07-0.021c3.75-1.182,4.43-1.736,4.48-1.787h0a0.014,0.014,0,0,1,.01,0l0.17-.176,0.01,0.011,5.39-5.451h0l0.38-.389a1.1,1.1,0,0,0,0-1.557Zm-3.49,9.973a0.2,0.2,0,0,0-.02.011s-0.01.006-.01,0.009a0.088,0.088,0,0,0-.02.009,0.081,0.081,0,0,0-.01.009,12.759,12.759,0,0,1-1.98.855c-0.15.054-.32,0.112-0.49,0.172l-1.81-1.836c0.06-.174.12-0.339,0.17-0.491a11.946,11.946,0,0,1,.85-2.01v-0.012a0.017,0.017,0,0,0,.01-0.017,0.012,0.012,0,0,0,.01-0.012,0.1,0.1,0,0,1,.01-0.018l0.14-.135,3.28,3.328Zm9.65-9.973-3.08-3.115a1.08,1.08,0,0,0-1.54,0l-0.77.779a1.12,1.12,0,0,0,0,1.557l3.08,3.115a1.08,1.08,0,0,0,1.54,0l0.77-.779A1.12,1.12,0,0,0,1101.03,776.1Z" transform="translate(-1085.16 -772.688)"/>
</svg>
